<svg height="512pt" viewBox="0 0 512 512" width="512pt" xmlns="http://www.w3.org/2000/svg"><g fill="#a8ebfa"><path d="m192.359375 206.359375c-3.839844 0-7.675781-1.464844-10.605469-4.394531l-69.539062-69.539063c-5.859375-5.859375-5.859375-15.355469 0-21.214843 5.855468-5.855469 15.355468-5.855469 21.210937 0l69.542969 69.542968c5.855469 5.855469 5.855469 15.355469 0 21.210938-2.929688 2.929687-6.769531 4.394531-10.609375 4.394531zm0 0"/><path d="m166 270h-91c-8.285156 0-15-6.714844-15-15s6.714844-15 15-15h91c8.28125 0 15 6.714844 15 15s-6.71875 15-15 15zm0 0"/><path d="m410.9375 376.113281c-3.285156 0-6.59375-1.074219-9.363281-3.289062l-76.792969-61.453125c-6.46875-5.175782-7.515625-14.613282-2.339844-21.082032 5.179688-6.46875 14.617188-7.515624 21.085938-2.339843l76.792968 61.453125c6.46875 5.175781 7.515626 14.617187 2.339844 21.082031-2.964844 3.703125-7.320312 5.628906-11.722656 5.628906zm0 0"/><path d="m256 180c-8.285156 0-15-6.714844-15-15v-90c0-8.285156 6.714844-15 15-15s15 6.714844 15 15v90c0 8.285156-6.714844 15-15 15zm0 0"/><path d="m319.640625 206.359375c-3.871094 0-7.742187-1.488281-10.679687-4.464844-5.816407-5.898437-5.753907-15.394531.144531-21.210937l74.933593-73.9375c5.894532-5.816406 15.394532-5.753906 21.214844.144531 5.816406 5.898437 5.753906 15.394531-.144531 21.214844l-74.933594 73.933593c-2.921875 2.882813-6.730469 4.320313-10.535156 4.320313zm0 0"/><path d="m256 422c-8.285156 0-15-6.714844-15-15v-62c0-8.285156 6.714844-15 15-15s15 6.714844 15 15v62c0 8.285156-6.714844 15-15 15zm0 0"/></g><path d="m256 360c-57.898438 0-105-47.101562-105-105s47.101562-105 105-105 105 47.101562 105 105-47.101562 105-105 105zm0-180c-41.355469 0-75 33.644531-75 75s33.644531 75 75 75 75-33.644531 75-75-33.644531-75-75-75zm0 0" fill="#979fef"/><path d="m256 90c-24.8125 0-45-20.1875-45-45s20.1875-45 45-45 45 20.1875 45 45-20.1875 45-45 45zm0-60c-8.269531 0-15 6.730469-15 15s6.730469 15 15 15 15-6.730469 15-15-6.730469-15-15-15zm0 0" fill="#25d9f8"/><path d="m91 150c-33.085938 0-60-26.914062-60-60s26.914062-60 60-60 60 26.914062 60 60-26.914062 60-60 60zm0-90c-16.542969 0-30 13.457031-30 30s13.457031 30 30 30 30-13.457031 30-30-13.457031-30-30-30zm0 0" fill="#979fef"/><path d="m437 150c-41.355469 0-75-33.644531-75-75s33.644531-75 75-75 75 33.644531 75 75-33.644531 75-75 75zm0-120c-24.8125 0-45 20.1875-45 45s20.1875 45 45 45 45-20.1875 45-45-20.1875-45-45-45zm0 0" fill="#979fef"/><path d="m45 300c-24.8125 0-45-20.1875-45-45s20.1875-45 45-45 45 20.1875 45 45-20.1875 45-45 45zm0-60c-8.269531 0-15 6.730469-15 15s6.730469 15 15 15 15-6.730469 15-15-6.730469-15-15-15zm0 0" fill="#25d9f8"/><path d="m437 421c-24.8125 0-45-20.1875-45-45 0-11.953125 4.597656-23.347656 12.945312-32.078125 8.582032-8.976563 19.964844-13.921875 32.054688-13.921875s23.472656 4.945312 32.054688 13.921875c8.347656 8.730469 12.945312 20.125 12.945312 32.078125 0 24.8125-20.1875 45-45 45zm0-61c-7.988281 0-15 7.476562-15 16 0 8.269531 6.730469 15 15 15s15-6.730469 15-15c0-8.523438-7.011719-16-15-16zm0 0" fill="#25d9f8"/><path d="m256 512c-33.085938 0-60-26.914062-60-60s26.914062-60 60-60 60 26.914062 60 60-26.914062 60-60 60zm0-90c-16.542969 0-30 13.457031-30 30s13.457031 30 30 30 30-13.457031 30-30-13.457031-30-30-30zm0 0" fill="#979fef"/></svg>